<svg xmlns="http://www.w3.org/2000/svg" viewBox="0 0 55 55" shape-rendering="crispEdges"><path fill="#ffffff" d="M0 0h55v55H0z"/><path stroke="#0f2a44" d="M1 1.5h7m1 0h1m1 0h5m2 0h1m3 0h1m1 0h2m1 0h1m1 0h2m3 0h2m1 0h2m1 0h2m1 0h1m3 0h7M1 2.5h1m5 0h1m1 0h1m2 0h3m1 0h2m4 0h5m2 0h3m2 0h2m1 0h1m1 0h2m2 0h2m2 0h1m5 0h1M1 3.5h1m1 0h3m1 0h1m1 0h2m2 0h1m1 0h2m3 0h1m1 0h1m2 0h5m5 0h4m1 0h2m2 0h1m2 0h1m1 0h3m1 0h1M1 4.5h1m1 0h3m1 0h1m4 0h6m2 0h2m3 0h1m3 0h3m1 0h3m1 0h2m3 0h2m1 0h1m1 0h1m1 0h3m1 0h1M1 5.5h1m1 0h3m1 0h1m2 0h1m1 0h1m2 0h1m2 0h1m2 0h1m2 0h6m2 0h2m1 0h4m2 0h3m3 0h1m1 0h3m1 0h1M1 6.5h1m5 0h1m1 0h2m2 0h2m2 0h1m2 0h1m3 0h2m3 0h1m1 0h4m2 0h1m1 0h2m2 0h1m3 0h1m5 0h1M1 7.5h7m1 0h1m1 0h1m1 0h1m1 0h1m1 0h1m1 0h1m1 0h1m1 0h1m1 0h1m1 0h1m1 0h1m1 0h1m1 0h1m1 0h1m1 0h1m1 0h1m1 0h1m1 0h1m1 0h1m1 0h7M9 8.5h1m3 0h1m1 0h1m5 0h1m3 0h1m3 0h1m4 0h2m2 0h2m1 0h1m1 0h3M3 9.5h3m1 0h1m1 0h1m1 0h4m1 0h1m1 0h2m4 0h6m1 0h4m1 0h4m2 0h1m1 0h5m2 0h3M2 10.5h2m6 0h1m2 0h1m2 0h1m1 0h2m3 0h1m1 0h4m1 0h2m2 0h1m3 0h1m2 0h3m2 0h1m2 0h5M3 11.5h5m2 0h1m4 0h3m1 0h1m1 0h2m1 0h3m5 0h1m4 0h3m1 0h1m2 0h2m1 0h1m1 0h3M1 12.5h3m7 0h1m2 0h1m1 0h2m1 0h4m1 0h1m3 0h3m4 0h2m2 0h2m2 0h1m6 0h1M3 13.5h3m1 0h1m1 0h1m4 0h1m3 0h1m2 0h2m1 0h1m2 0h4m2 0h1m1 0h4m1 0h1m1 0h2m1 0h5m1 0h1m1 0h1M1 14.5h3m2 0h1m1 0h4m2 0h1m2 0h3m1 0h3m1 0h3m1 0h2m2 0h1m4 0h1m1 0h2m1 0h2m4 0h5M1 15.5h2m1 0h1m2 0h2m5 0h1m2 0h2m1 0h3m1 0h1m1 0h2m1 0h3m2 0h1m2 0h3m1 0h1m4 0h5M5 16.5h2m1 0h1m2 0h1m1 0h1m1 0h1m1 0h2m4 0h1m1 0h1m2 0h2m5 0h1m2 0h1m1 0h2m1 0h3m2 0h1m3 0h2M4 17.5h1m2 0h3m6 0h2m1 0h1m5 0h1m5 0h2m1 0h1m2 0h2m1 0h1m3 0h3m2 0h3m1 0h1M6 18.5h1m4 0h1m2 0h1m2 0h1m1 0h1m2 0h1m1 0h1m1 0h1m1 0h1m4 0h1m2 0h2m2 0h1m2 0h1m5 0h1m2 0h2M1 19.5h1m3 0h3m2 0h1m2 0h3m2 0h6m3 0h1m1 0h6m1 0h5m1 0h1m1 0h1m2 0h1m3 0h1M2 20.5h3m3 0h1m1 0h1m2 0h1m1 0h1m5 0h1m2 0h1m1 0h1m2 0h1m1 0h2m1 0h1m2 0h5m1 0h1m1 0h1m1 0h1m4 0h2M1 21.5h4m1 0h2m1 0h3m1 0h1m1 0h1m1 0h3m1 0h4m2 0h4m1 0h1m3 0h1m2 0h1m4 0h2m1 0h5m1 0h1M1 22.5h1m2 0h1m1 0h1m3 0h3m1 0h1m5 0h1m2 0h4m1 0h1m1 0h2m1 0h3m2 0h2m1 0h1m1 0h1m5 0h2m1 0h2M3 23.5h1m2 0h2m1 0h2m2 0h5m1 0h2m1 0h1m3 0h1m1 0h1m2 0h1m1 0h1m1 0h2m5 0h1m1 0h1m1 0h2m1 0h2M1 24.5h2m1 0h1m1 0h1m3 0h3m2 0h1m1 0h5m1 0h1m5 0h2m1 0h4m1 0h2m1 0h5m1 0h1m1 0h1M1 25.5h1m1 0h1m1 0h5m2 0h1m1 0h2m1 0h1m3 0h1m2 0h8m1 0h7m2 0h1m1 0h8M3 26.5h3m3 0h4m1 0h2m1 0h1m1 0h1m1 0h2m1 0h2m3 0h1m3 0h3m1 0h2m1 0h2m1 0h3m3 0h1m2 0h2M2 27.5h1m2 0h1m1 0h1m1 0h1m1 0h4m1 0h1m2 0h3m2 0h2m1 0h1m1 0h1m1 0h2m1 0h2m1 0h4m1 0h1m2 0h1m1 0h1m1 0h2m1 0h1M1 28.5h1m1 0h1m1 0h1m3 0h1m1 0h1m1 0h1m2 0h1m2 0h1m2 0h1m1 0h2m3 0h3m1 0h1m1 0h2m1 0h2m1 0h2m2 0h1m3 0h2m2 0h1M3 29.5h1m1 0h12m1 0h1m1 0h2m2 0h8m1 0h1m1 0h5m3 0h10M5 30.5h1m3 0h3m3 0h4m1 0h2m2 0h1m4 0h1m1 0h4m1 0h1m1 0h1m3 0h2m1 0h1m1 0h3m1 0h1m1 0h1M1 31.5h1m1 0h5m2 0h2m6 0h2m4 0h1m5 0h1m2 0h1m1 0h2m2 0h2m4 0h2m2 0h1m2 0h1M2 32.5h1m1 0h1m1 0h1m1 0h3m1 0h1m2 0h1m3 0h1m3 0h2m1 0h2m2 0h1m1 0h1m8 0h1m2 0h1m1 0h2m1 0h2M2 33.5h2m2 0h4m2 0h1m1 0h2m3 0h5m2 0h2m1 0h1m1 0h2m3 0h4m5 0h3m2 0h2M1 34.5h1m1 0h4m3 0h1m1 0h2m1 0h1m1 0h1m1 0h4m1 0h6m1 0h1m5 0h2m4 0h1m1 0h1m2 0h3m2 0h1M1 35.5h3m1 0h3m4 0h1m3 0h1m1 0h1m1 0h1m2 0h2m4 0h3m4 0h2m1 0h2m3 0h3m1 0h1m1 0h3M1 36.5h1m1 0h2m1 0h1m4 0h3m1 0h3m1 0h2m1 0h2m2 0h1m2 0h5m1 0h2m1 0h1m1 0h6m1 0h2m1 0h1M3 37.5h1m2 0h2m1 0h1m3 0h1m1 0h1m1 0h1m3 0h4m1 0h1m4 0h3m1 0h4m3 0h2m1 0h1m2 0h1m2 0h3M1 38.5h1m1 0h2m3 0h5m1 0h2m3 0h2m5 0h2m2 0h3m2 0h1m2 0h1m1 0h2m1 0h3m1 0h3m3 0h1M1 39.5h2m4 0h2m3 0h1m1 0h2m1 0h2m2 0h3m1 0h3m5 0h1m1 0h1m1 0h3m1 0h1m2 0h1m1 0h1m2 0h2m1 0h1M2 40.5h1m1 0h2m2 0h2m4 0h1m1 0h1m3 0h1m1 0h3m1 0h1m2 0h2m7 0h1m1 0h11m2 0h1M2 41.5h1m1 0h2m1 0h5m1 0h1m2 0h2m1 0h2m2 0h4m4 0h3m3 0h2m1 0h1m1 0h2m1 0h1m2 0h1m1 0h2m1 0h1M1 42.5h2m2 0h1m4 0h3m4 0h1m1 0h2m6 0h3m3 0h1m3 0h2m2 0h5m2 0h2m2 0h2M1 43.5h2m1 0h4m1 0h5m1 0h2m3 0h1m2 0h1m1 0h1m1 0h1m1 0h2m1 0h1m5 0h2m1 0h1m3 0h2m1 0h3M2 44.5h2m4 0h2m1 0h1m1 0h1m4 0h1m1 0h1m2 0h3m1 0h1m2 0h2m1 0h2m3 0h1m1 0h11m2 0h1M4 45.5h1m2 0h1m1 0h1m1 0h2m1 0h2m1 0h1m1 0h11m1 0h1m3 0h1m1 0h1m1 0h1m5 0h7m1 0h1M9 46.5h2m1 0h2m1 0h2m1 0h1m1 0h1m1 0h4m3 0h3m3 0h4m2 0h3m1 0h1m3 0h1m2 0h2M1 47.5h7m3 0h1m2 0h1m5 0h1m3 0h2m1 0h1m1 0h2m4 0h2m2 0h1m1 0h2m2 0h1m1 0h1m1 0h4M1 48.5h1m5 0h1m5 0h1m1 0h2m1 0h1m2 0h2m1 0h2m3 0h1m2 0h3m1 0h1m4 0h1m1 0h1m1 0h1m3 0h1m3 0h1M1 49.5h1m1 0h3m1 0h1m1 0h4m1 0h1m1 0h1m3 0h1m4 0h5m1 0h2m1 0h1m1 0h2m1 0h2m2 0h1m1 0h7M1 50.5h1m1 0h3m1 0h1m1 0h1m1 0h1m1 0h2m1 0h9m1 0h1m1 0h6m2 0h1m3 0h1m1 0h2m1 0h1m2 0h1M1 51.5h1m1 0h3m1 0h1m1 0h2m1 0h1m1 0h1m1 0h1m5 0h1m2 0h4m1 0h3m2 0h6m1 0h1m1 0h1m1 0h2m1 0h1M1 52.5h1m5 0h1m2 0h3m1 0h9m3 0h5m1 0h1m3 0h2m2 0h1m2 0h2m1 0h1m3 0h1m1 0h1M1 53.5h7m2 0h5m2 0h3m1 0h2m2 0h2m1 0h1m3 0h1m1 0h2m1 0h2m4 0h1m3 0h1m1 0h1m1 0h1"/></svg>
